<svg xmlns="http://www.w3.org/2000/svg" width="17.309" height="17.7" viewBox="0 0 17.309 17.7">
  <g id="event" transform="translate(0.35 0.35)">
    <path id="Path_51" data-name="Path 51" d="M193.961,280.375a.5.5,0,0,0,.71,0l1.792-1.792a.5.5,0,1,0-.71-.71l-1.437,1.437-.655-.655a.5.5,0,1,0-.71.71Zm0,0" transform="translate(-186.402 -268.504)" fill="#5e77fb" stroke="#5e77fb" stroke-width="0.7"/>
    <path id="Path_52" data-name="Path 52" d="M134.09,207.786a3.985,3.985,0,1,0-3.985-3.985A3.989,3.989,0,0,0,134.09,207.786Zm0-6.966a2.981,2.981,0,1,1-2.981,2.981A2.984,2.984,0,0,1,134.09,200.82Zm0,0" transform="translate(-125.785 -193.182)" fill="#5e77fb" stroke="#5e77fb" stroke-width="0.7"/>
    <path id="Path_53" data-name="Path 53" d="M14.986,1.069H14.07V.5a.5.5,0,1,0-1,0v.567H12.08V.5a.5.5,0,0,0-1,0v.567H5.533V.5a.5.5,0,0,0-1,0v.567H3.543V.5a.5.5,0,0,0-1,0v.567H1.623A1.625,1.625,0,0,0,0,2.692V15.377A1.625,1.625,0,0,0,1.623,17H14.986a1.625,1.625,0,0,0,1.623-1.623V2.692a1.625,1.625,0,0,0-1.623-1.623Zm.619,14.308a.62.62,0,0,1-.619.619H1.623A.62.62,0,0,1,1,15.377V5.243h14.6ZM1,2.692a.62.62,0,0,1,.619-.619h.916v-.5a.5.5,0,0,0,1,0v.5h.986v-.5l.406.493.1.009a.5.5,0,0,0,.5-.5v.5h5.543v-.5a.5.5,0,0,0,1,0v.5h.986v-.5a.5.5,0,0,0,1,0v.5h.915a.62.62,0,0,1,.619.619V4.239H1Zm0,0" stroke="#000" stroke-width="0.7"/>
  </g>
</svg>
