<svg xmlns="http://www.w3.org/2000/svg" width="22.144" height="20.6" viewBox="0 0 22.144 20.6">
  <g id="playlist_1_" data-name="playlist (1)" transform="translate(0.3 -15.753)">
    <g id="Group_745" data-name="Group 745" transform="translate(7.692 16.053)">
      <g id="Group_744" data-name="Group 744" transform="translate(0 0)">
        <path id="Path_2487" data-name="Path 2487" d="M173.3,22.581a7.154,7.154,0,0,0-2.769-2.726,7.793,7.793,0,0,1-2.045-1.729l-.1-.131a3.385,3.385,0,0,1-.712-1.277.716.716,0,0,0-.032-.091.76.76,0,0,0-.054-.154.634.634,0,0,0-.072-.112.739.739,0,0,0-.1-.115.823.823,0,0,0-.123-.083.687.687,0,0,0-.122-.06.677.677,0,0,0-.168-.034c-.029,0-.054-.015-.085-.015a.494.494,0,0,0-.051.011c-.018,0-.035-.006-.054,0a.656.656,0,0,0-.092.032.673.673,0,0,0-.148.052.606.606,0,0,0-.117.08.683.683,0,0,0-.111.1.762.762,0,0,0-.08.118.811.811,0,0,0-.065.132.677.677,0,0,0-.029.149.388.388,0,0,0-.023.1V30.53a4.45,4.45,0,0,0-2.308-.631c-2.122,0-3.846,1.38-3.846,3.077s1.725,3.077,3.846,3.077,3.846-1.38,3.846-3.077V24.01a5.537,5.537,0,0,1,3.566,4.192,4.157,4.157,0,0,1-.3.42.768.768,0,1,0,1.154,1.015,5.9,5.9,0,0,0,.563-.791.794.794,0,0,0,.052-.074,8.284,8.284,0,0,0,1.112-3.655A5.106,5.106,0,0,0,173.3,22.581Zm-9.458,11.934c-1.251,0-2.308-.7-2.308-1.538s1.057-1.538,2.308-1.538,2.308.7,2.308,1.538S165.1,34.515,163.846,34.515Zm8.463-9.494a6.819,6.819,0,0,1-.155,1.072,7.413,7.413,0,0,0-4.462-3.72V19.547a11.018,11.018,0,0,0,1.989,1.583,5.912,5.912,0,0,1,2.243,2.125A3.611,3.611,0,0,1,172.309,25.021Z" transform="translate(-160 -16.053)" fill="#5e77fb" stroke="#5e77fb" stroke-width="0.6"/>
      </g>
    </g>
    <g id="Group_747" data-name="Group 747" transform="translate(0 16.053)">
      <g id="Group_746" data-name="Group 746" transform="translate(0 0)">
        <path id="Path_2488" data-name="Path 2488" d="M10,16.053H.769a.769.769,0,0,0,0,1.538H10a.769.769,0,0,0,0-1.538Z" transform="translate(0 -16.053)" stroke="#000" stroke-width="0.6"/>
      </g>
    </g>
    <g id="Group_749" data-name="Group 749" transform="translate(0 20.668)">
      <g id="Group_748" data-name="Group 748">
        <path id="Path_2489" data-name="Path 2489" d="M10,112.053H.769a.769.769,0,0,0,0,1.538H10a.769.769,0,0,0,0-1.538Z" transform="translate(0 -112.053)" stroke="#000" stroke-width="0.6"/>
      </g>
    </g>
    <g id="Group_751" data-name="Group 751" transform="translate(0 25.284)">
      <g id="Group_750" data-name="Group 750">
        <path id="Path_2490" data-name="Path 2490" d="M5.385,208.053H.769a.769.769,0,1,0,0,1.538H5.385a.769.769,0,1,0,0-1.538Z" transform="translate(0 -208.053)" stroke="#000" stroke-width="0.6"/>
      </g>
    </g>
    <g id="Group_753" data-name="Group 753" transform="translate(0 29.899)">
      <g id="Group_752" data-name="Group 752">
        <path id="Path_2491" data-name="Path 2491" d="M5.385,304.053H.769a.769.769,0,1,0,0,1.538H5.385a.769.769,0,1,0,0-1.538Z" transform="translate(0 -304.053)" stroke="#000" stroke-width="0.6"/>
      </g>
    </g>
  </g>
</svg>
