<svg xmlns="http://www.w3.org/2000/svg" width="20" height="20" viewBox="0 0 20 20">
  <g id="Icon_feather-settings" data-name="Icon feather-settings" transform="translate(-0.5 -0.5)">
    <path id="Path_57" data-name="Path 57" d="M18.409,15.955A2.455,2.455,0,1,1,15.955,13.5,2.455,2.455,0,0,1,18.409,15.955Z" transform="translate(-5.455 -5.455)" fill="none" stroke="#5e77fb" stroke-linecap="round" stroke-linejoin="round" stroke-width="2"/>
    <path id="Path_58" data-name="Path 58" d="M16.555,12.955a1.35,1.35,0,0,0,.27,1.489l.049.049a1.637,1.637,0,1,1-2.315,2.315l-.049-.049a1.361,1.361,0,0,0-2.307.965v.139a1.636,1.636,0,1,1-3.273,0V17.79a1.35,1.35,0,0,0-.884-1.235,1.35,1.35,0,0,0-1.489.27l-.049.049a1.637,1.637,0,1,1-2.315-2.315l.049-.049A1.361,1.361,0,0,0,3.275,12.2H3.136a1.636,1.636,0,1,1,0-3.273H3.21a1.35,1.35,0,0,0,1.235-.884,1.35,1.35,0,0,0-.27-1.489l-.049-.049A1.637,1.637,0,1,1,6.442,4.192l.049.049a1.35,1.35,0,0,0,1.489.27h.065a1.35,1.35,0,0,0,.818-1.235V3.136a1.636,1.636,0,0,1,3.273,0V3.21a1.361,1.361,0,0,0,2.307.965l.049-.049a1.637,1.637,0,1,1,2.315,2.315l-.049.049a1.35,1.35,0,0,0-.27,1.489v.065a1.35,1.35,0,0,0,1.235.818h.139a1.636,1.636,0,0,1,0,3.273H17.79a1.35,1.35,0,0,0-1.235.818Z" fill="none" stroke="#000" stroke-linecap="round" stroke-linejoin="round" stroke-width="2"/>
  </g>
</svg>
